<mxfile host="app.diagrams.net" modified="2024-05-06T11:32:57.975Z" agent="Mozilla/5.0 (X11; Linux x86_64) AppleWebKit/537.36 (KHTML, like Gecko) Chrome/124.0.0.0 Safari/537.36" etag="HYcoemuoO1bP83a15iYM" version="24.3.1" type="github">
  <diagram name="Page-1" id="dykTWRFucjQgSnOK1D33">
    <mxGraphModel dx="1420" dy="1594" grid="0" gridSize="10" guides="1" tooltips="1" connect="1" arrows="1" fold="1" page="0" pageScale="1" pageWidth="827" pageHeight="1169" math="0" shadow="0">
      <root>
        <mxCell id="0" />
        <mxCell id="1" parent="0" />
        <mxCell id="SJ-EjwzHf5jVI1uUDhqG-1" value="Badger" style="rounded=1;whiteSpace=wrap;html=1;" parent="1" vertex="1">
          <mxGeometry x="161" y="-38" width="120" height="25" as="geometry" />
        </mxCell>
        <mxCell id="SJ-EjwzHf5jVI1uUDhqG-2" value="Bear" style="rounded=1;whiteSpace=wrap;html=1;" parent="1" vertex="1">
          <mxGeometry x="161" y="-3" width="120" height="25" as="geometry" />
        </mxCell>
        <mxCell id="SJ-EjwzHf5jVI1uUDhqG-3" value="Bison*" style="rounded=1;whiteSpace=wrap;html=1;" parent="1" vertex="1">
          <mxGeometry x="161" y="67" width="120" height="25" as="geometry" />
        </mxCell>
        <mxCell id="SJ-EjwzHf5jVI1uUDhqG-4" value="Cat" style="rounded=1;whiteSpace=wrap;html=1;" parent="1" vertex="1">
          <mxGeometry x="161" y="102" width="120" height="25" as="geometry" />
        </mxCell>
        <mxCell id="SJ-EjwzHf5jVI1uUDhqG-5" value="Chamois" style="rounded=1;whiteSpace=wrap;html=1;" parent="1" vertex="1">
          <mxGeometry x="161" y="137" width="120" height="25" as="geometry" />
        </mxCell>
        <mxCell id="SJ-EjwzHf5jVI1uUDhqG-6" value="Cow" style="rounded=1;whiteSpace=wrap;html=1;" parent="1" vertex="1">
          <mxGeometry x="161" y="172" width="120" height="25" as="geometry" />
        </mxCell>
        <mxCell id="SJ-EjwzHf5jVI1uUDhqG-7" value="Dog" style="rounded=1;whiteSpace=wrap;html=1;" parent="1" vertex="1">
          <mxGeometry x="161" y="207" width="120" height="25" as="geometry" />
        </mxCell>
        <mxCell id="SJ-EjwzHf5jVI1uUDhqG-8" value="Empty**" style="rounded=1;whiteSpace=wrap;html=1;" parent="1" vertex="1">
          <mxGeometry x="161" y="242" width="120" height="25" as="geometry" />
        </mxCell>
        <mxCell id="SJ-EjwzHf5jVI1uUDhqG-9" value="Equid" style="rounded=1;whiteSpace=wrap;html=1;" parent="1" vertex="1">
          <mxGeometry x="161" y="277" width="120" height="25" as="geometry" />
        </mxCell>
        <mxCell id="SJ-EjwzHf5jVI1uUDhqG-10" value="Fox" style="rounded=1;whiteSpace=wrap;html=1;" parent="1" vertex="1">
          <mxGeometry x="161" y="312" width="120" height="25" as="geometry" />
        </mxCell>
        <mxCell id="SJ-EjwzHf5jVI1uUDhqG-11" value="Genet**" style="rounded=1;whiteSpace=wrap;html=1;" parent="1" vertex="1">
          <mxGeometry x="161" y="347" width="120" height="25" as="geometry" />
        </mxCell>
        <mxCell id="SJ-EjwzHf5jVI1uUDhqG-12" value="Goat" style="rounded=1;whiteSpace=wrap;html=1;" parent="1" vertex="1">
          <mxGeometry x="161" y="382" width="120" height="25" as="geometry" />
        </mxCell>
        <mxCell id="SJ-EjwzHf5jVI1uUDhqG-13" value="Hedgehog" style="rounded=1;whiteSpace=wrap;html=1;" parent="1" vertex="1">
          <mxGeometry x="161" y="417" width="120" height="25" as="geometry" />
        </mxCell>
        <mxCell id="SJ-EjwzHf5jVI1uUDhqG-14" value="Human" style="rounded=1;whiteSpace=wrap;html=1;" parent="1" vertex="1">
          <mxGeometry x="161" y="452" width="120" height="25" as="geometry" />
        </mxCell>
        <mxCell id="SJ-EjwzHf5jVI1uUDhqG-15" value="Ibex**" style="rounded=1;whiteSpace=wrap;html=1;" parent="1" vertex="1">
          <mxGeometry x="161" y="487" width="120" height="25" as="geometry" />
        </mxCell>
        <mxCell id="SJ-EjwzHf5jVI1uUDhqG-16" value="Lagomorph" style="rounded=1;whiteSpace=wrap;html=1;" parent="1" vertex="1">
          <mxGeometry x="161" y="522" width="120" height="25" as="geometry" />
        </mxCell>
        <mxCell id="SJ-EjwzHf5jVI1uUDhqG-17" value="Lynx" style="rounded=1;whiteSpace=wrap;html=1;" parent="1" vertex="1">
          <mxGeometry x="161" y="557" width="120" height="25" as="geometry" />
        </mxCell>
        <mxCell id="SJ-EjwzHf5jVI1uUDhqG-18" value="Marmot**" style="rounded=1;whiteSpace=wrap;html=1;" parent="1" vertex="1">
          <mxGeometry x="161" y="592" width="120" height="25" as="geometry" />
        </mxCell>
        <mxCell id="SJ-EjwzHf5jVI1uUDhqG-19" value="Micromammal" style="rounded=1;whiteSpace=wrap;html=1;" parent="1" vertex="1">
          <mxGeometry x="161" y="627" width="120" height="25" as="geometry" />
        </mxCell>
        <mxCell id="SJ-EjwzHf5jVI1uUDhqG-20" value="Mouflon**" style="rounded=1;whiteSpace=wrap;html=1;" parent="1" vertex="1">
          <mxGeometry x="161" y="662" width="120" height="25" as="geometry" />
        </mxCell>
        <mxCell id="SJ-EjwzHf5jVI1uUDhqG-21" value="Mustelid" style="rounded=1;whiteSpace=wrap;html=1;" parent="1" vertex="1">
          <mxGeometry x="161" y="697" width="120" height="25" as="geometry" />
        </mxCell>
        <mxCell id="SJ-EjwzHf5jVI1uUDhqG-22" value="Nutria**" style="rounded=1;whiteSpace=wrap;html=1;" parent="1" vertex="1">
          <mxGeometry x="161" y="732" width="120" height="25" as="geometry" />
        </mxCell>
        <mxCell id="SJ-EjwzHf5jVI1uUDhqG-23" value="Otter*" style="rounded=1;whiteSpace=wrap;html=1;" parent="1" vertex="1">
          <mxGeometry x="161" y="767" width="120" height="25" as="geometry" />
        </mxCell>
        <mxCell id="SJ-EjwzHf5jVI1uUDhqG-24" value="Red deer" style="rounded=1;whiteSpace=wrap;html=1;" parent="1" vertex="1">
          <mxGeometry x="161" y="802" width="120" height="25" as="geometry" />
        </mxCell>
        <mxCell id="SJ-EjwzHf5jVI1uUDhqG-25" value="Roe deer" style="rounded=1;whiteSpace=wrap;html=1;" parent="1" vertex="1">
          <mxGeometry x="161" y="837" width="120" height="25" as="geometry" />
        </mxCell>
        <mxCell id="SJ-EjwzHf5jVI1uUDhqG-26" value="Sheep" style="rounded=1;whiteSpace=wrap;html=1;" parent="1" vertex="1">
          <mxGeometry x="161" y="872" width="120" height="25" as="geometry" />
        </mxCell>
        <mxCell id="SJ-EjwzHf5jVI1uUDhqG-27" value="Squirrel" style="rounded=1;whiteSpace=wrap;html=1;" parent="1" vertex="1">
          <mxGeometry x="161" y="907" width="120" height="25" as="geometry" />
        </mxCell>
        <mxCell id="SJ-EjwzHf5jVI1uUDhqG-28" value="Unknown" style="rounded=1;whiteSpace=wrap;html=1;" parent="1" vertex="1">
          <mxGeometry x="161" y="942" width="120" height="25" as="geometry" />
        </mxCell>
        <mxCell id="SJ-EjwzHf5jVI1uUDhqG-29" value="Vehicle" style="rounded=1;whiteSpace=wrap;html=1;" parent="1" vertex="1">
          <mxGeometry x="161" y="977" width="120" height="25" as="geometry" />
        </mxCell>
        <mxCell id="SJ-EjwzHf5jVI1uUDhqG-31" value="Wild boar" style="rounded=1;whiteSpace=wrap;html=1;" parent="1" vertex="1">
          <mxGeometry x="161" y="1012" width="120" height="25" as="geometry" />
        </mxCell>
        <mxCell id="SJ-EjwzHf5jVI1uUDhqG-32" value="Wolf" style="rounded=1;whiteSpace=wrap;html=1;" parent="1" vertex="1">
          <mxGeometry x="161" y="1047" width="120" height="25" as="geometry" />
        </mxCell>
        <mxCell id="64aAOLDRuQOuTL0fSd9q-74" style="edgeStyle=none;curved=1;rounded=0;orthogonalLoop=1;jettySize=auto;html=1;exitX=1;exitY=0.5;exitDx=0;exitDy=0;entryX=0;entryY=0.5;entryDx=0;entryDy=0;fontSize=12;startSize=8;endSize=8;" parent="1" source="64aAOLDRuQOuTL0fSd9q-1" target="SJ-EjwzHf5jVI1uUDhqG-1" edge="1">
          <mxGeometry relative="1" as="geometry" />
        </mxCell>
        <mxCell id="64aAOLDRuQOuTL0fSd9q-1" value="Badger" style="rounded=1;whiteSpace=wrap;html=1;" parent="1" vertex="1">
          <mxGeometry x="-133" y="-28" width="120" height="25" as="geometry" />
        </mxCell>
        <mxCell id="64aAOLDRuQOuTL0fSd9q-75" style="edgeStyle=none;curved=1;rounded=0;orthogonalLoop=1;jettySize=auto;html=1;exitX=1;exitY=0.5;exitDx=0;exitDy=0;entryX=0;entryY=0.5;entryDx=0;entryDy=0;fontSize=12;startSize=8;endSize=8;" parent="1" source="64aAOLDRuQOuTL0fSd9q-2" target="SJ-EjwzHf5jVI1uUDhqG-2" edge="1">
          <mxGeometry relative="1" as="geometry" />
        </mxCell>
        <mxCell id="64aAOLDRuQOuTL0fSd9q-2" value="Bear" style="rounded=1;whiteSpace=wrap;html=1;" parent="1" vertex="1">
          <mxGeometry x="-133" y="7" width="120" height="25" as="geometry" />
        </mxCell>
        <mxCell id="64aAOLDRuQOuTL0fSd9q-79" style="edgeStyle=none;curved=1;rounded=0;orthogonalLoop=1;jettySize=auto;html=1;exitX=1;exitY=0.5;exitDx=0;exitDy=0;entryX=0;entryY=0.5;entryDx=0;entryDy=0;fontSize=12;startSize=8;endSize=8;" parent="1" source="64aAOLDRuQOuTL0fSd9q-3" target="SJ-EjwzHf5jVI1uUDhqG-3" edge="1">
          <mxGeometry relative="1" as="geometry" />
        </mxCell>
        <mxCell id="64aAOLDRuQOuTL0fSd9q-3" value="Bison*" style="rounded=1;whiteSpace=wrap;html=1;" parent="1" vertex="1">
          <mxGeometry x="-133" y="77" width="120" height="25" as="geometry" />
        </mxCell>
        <mxCell id="64aAOLDRuQOuTL0fSd9q-80" style="edgeStyle=none;curved=1;rounded=0;orthogonalLoop=1;jettySize=auto;html=1;exitX=1;exitY=0.5;exitDx=0;exitDy=0;entryX=0;entryY=0.5;entryDx=0;entryDy=0;fontSize=12;startSize=8;endSize=8;" parent="1" source="64aAOLDRuQOuTL0fSd9q-5" target="SJ-EjwzHf5jVI1uUDhqG-5" edge="1">
          <mxGeometry relative="1" as="geometry" />
        </mxCell>
        <mxCell id="64aAOLDRuQOuTL0fSd9q-5" value="Chamois" style="rounded=1;whiteSpace=wrap;html=1;" parent="1" vertex="1">
          <mxGeometry x="-133" y="112" width="120" height="25" as="geometry" />
        </mxCell>
        <mxCell id="64aAOLDRuQOuTL0fSd9q-81" style="edgeStyle=none;curved=1;rounded=0;orthogonalLoop=1;jettySize=auto;html=1;exitX=1;exitY=0.5;exitDx=0;exitDy=0;entryX=0;entryY=0.5;entryDx=0;entryDy=0;fontSize=12;startSize=8;endSize=8;" parent="1" source="64aAOLDRuQOuTL0fSd9q-6" target="SJ-EjwzHf5jVI1uUDhqG-6" edge="1">
          <mxGeometry relative="1" as="geometry" />
        </mxCell>
        <mxCell id="64aAOLDRuQOuTL0fSd9q-6" value="Cow" style="rounded=1;whiteSpace=wrap;html=1;" parent="1" vertex="1">
          <mxGeometry x="-133" y="147" width="120" height="25" as="geometry" />
        </mxCell>
        <mxCell id="64aAOLDRuQOuTL0fSd9q-83" style="edgeStyle=none;curved=1;rounded=0;orthogonalLoop=1;jettySize=auto;html=1;exitX=1;exitY=0.5;exitDx=0;exitDy=0;entryX=0;entryY=0.5;entryDx=0;entryDy=0;fontSize=12;startSize=8;endSize=8;" parent="1" source="64aAOLDRuQOuTL0fSd9q-7" target="SJ-EjwzHf5jVI1uUDhqG-7" edge="1">
          <mxGeometry relative="1" as="geometry" />
        </mxCell>
        <mxCell id="64aAOLDRuQOuTL0fSd9q-7" value="Dog" style="rounded=1;whiteSpace=wrap;html=1;" parent="1" vertex="1">
          <mxGeometry x="-133" y="182" width="120" height="25" as="geometry" />
        </mxCell>
        <mxCell id="64aAOLDRuQOuTL0fSd9q-84" style="edgeStyle=none;curved=1;rounded=0;orthogonalLoop=1;jettySize=auto;html=1;exitX=1;exitY=0.5;exitDx=0;exitDy=0;entryX=0;entryY=0.5;entryDx=0;entryDy=0;fontSize=12;startSize=8;endSize=8;" parent="1" source="64aAOLDRuQOuTL0fSd9q-8" target="SJ-EjwzHf5jVI1uUDhqG-4" edge="1">
          <mxGeometry relative="1" as="geometry" />
        </mxCell>
        <mxCell id="64aAOLDRuQOuTL0fSd9q-8" value="Domestic Cat" style="rounded=1;whiteSpace=wrap;html=1;" parent="1" vertex="1">
          <mxGeometry x="-133" y="217" width="120" height="25" as="geometry" />
        </mxCell>
        <mxCell id="64aAOLDRuQOuTL0fSd9q-85" style="edgeStyle=none;curved=1;rounded=0;orthogonalLoop=1;jettySize=auto;html=1;exitX=1;exitY=0.5;exitDx=0;exitDy=0;entryX=0;entryY=0.5;entryDx=0;entryDy=0;fontSize=12;startSize=8;endSize=8;" parent="1" source="64aAOLDRuQOuTL0fSd9q-9" target="SJ-EjwzHf5jVI1uUDhqG-9" edge="1">
          <mxGeometry relative="1" as="geometry" />
        </mxCell>
        <mxCell id="64aAOLDRuQOuTL0fSd9q-9" value="Donkey" style="rounded=1;whiteSpace=wrap;html=1;" parent="1" vertex="1">
          <mxGeometry x="-133" y="252" width="120" height="25" as="geometry" />
        </mxCell>
        <mxCell id="64aAOLDRuQOuTL0fSd9q-86" style="edgeStyle=none;curved=1;rounded=0;orthogonalLoop=1;jettySize=auto;html=1;exitX=1;exitY=0.5;exitDx=0;exitDy=0;entryX=0;entryY=0.5;entryDx=0;entryDy=0;fontSize=12;startSize=8;endSize=8;" parent="1" source="64aAOLDRuQOuTL0fSd9q-10" target="SJ-EjwzHf5jVI1uUDhqG-16" edge="1">
          <mxGeometry relative="1" as="geometry" />
        </mxCell>
        <mxCell id="64aAOLDRuQOuTL0fSd9q-10" value="European Hare" style="rounded=1;whiteSpace=wrap;html=1;" parent="1" vertex="1">
          <mxGeometry x="-133" y="287" width="120" height="25" as="geometry" />
        </mxCell>
        <mxCell id="64aAOLDRuQOuTL0fSd9q-87" style="edgeStyle=none;curved=1;rounded=0;orthogonalLoop=1;jettySize=auto;html=1;exitX=1;exitY=0.5;exitDx=0;exitDy=0;entryX=0;entryY=0.5;entryDx=0;entryDy=0;fontSize=12;startSize=8;endSize=8;" parent="1" source="64aAOLDRuQOuTL0fSd9q-11" target="SJ-EjwzHf5jVI1uUDhqG-21" edge="1">
          <mxGeometry relative="1" as="geometry" />
        </mxCell>
        <mxCell id="64aAOLDRuQOuTL0fSd9q-11" value="European polecat" style="rounded=1;whiteSpace=wrap;html=1;" parent="1" vertex="1">
          <mxGeometry x="-133" y="322" width="120" height="25" as="geometry" />
        </mxCell>
        <mxCell id="64aAOLDRuQOuTL0fSd9q-88" style="edgeStyle=none;curved=1;rounded=0;orthogonalLoop=1;jettySize=auto;html=1;exitX=1;exitY=0.5;exitDx=0;exitDy=0;entryX=0;entryY=0.5;entryDx=0;entryDy=0;fontSize=12;startSize=8;endSize=8;" parent="1" source="64aAOLDRuQOuTL0fSd9q-12" target="SJ-EjwzHf5jVI1uUDhqG-10" edge="1">
          <mxGeometry relative="1" as="geometry" />
        </mxCell>
        <mxCell id="64aAOLDRuQOuTL0fSd9q-12" value="Fox" style="rounded=1;whiteSpace=wrap;html=1;" parent="1" vertex="1">
          <mxGeometry x="-133" y="357" width="120" height="25" as="geometry" />
        </mxCell>
        <mxCell id="64aAOLDRuQOuTL0fSd9q-90" style="edgeStyle=none;curved=1;rounded=0;orthogonalLoop=1;jettySize=auto;html=1;exitX=1;exitY=0.5;exitDx=0;exitDy=0;entryX=0;entryY=0.5;entryDx=0;entryDy=0;fontSize=12;startSize=8;endSize=8;" parent="1" source="64aAOLDRuQOuTL0fSd9q-13" target="SJ-EjwzHf5jVI1uUDhqG-13" edge="1">
          <mxGeometry relative="1" as="geometry" />
        </mxCell>
        <mxCell id="64aAOLDRuQOuTL0fSd9q-13" value="Hedgehog" style="rounded=1;whiteSpace=wrap;html=1;" parent="1" vertex="1">
          <mxGeometry x="-133" y="427" width="120" height="25" as="geometry" />
        </mxCell>
        <mxCell id="64aAOLDRuQOuTL0fSd9q-91" style="edgeStyle=none;curved=1;rounded=0;orthogonalLoop=1;jettySize=auto;html=1;exitX=1;exitY=0.5;exitDx=0;exitDy=0;entryX=0;entryY=0.5;entryDx=0;entryDy=0;fontSize=12;startSize=8;endSize=8;" parent="1" source="64aAOLDRuQOuTL0fSd9q-14" target="SJ-EjwzHf5jVI1uUDhqG-9" edge="1">
          <mxGeometry relative="1" as="geometry" />
        </mxCell>
        <mxCell id="64aAOLDRuQOuTL0fSd9q-14" value="Horse" style="rounded=1;whiteSpace=wrap;html=1;" parent="1" vertex="1">
          <mxGeometry x="-133" y="462" width="120" height="25" as="geometry" />
        </mxCell>
        <mxCell id="64aAOLDRuQOuTL0fSd9q-92" style="edgeStyle=none;curved=1;rounded=0;orthogonalLoop=1;jettySize=auto;html=1;exitX=1;exitY=0.5;exitDx=0;exitDy=0;entryX=0;entryY=0.5;entryDx=0;entryDy=0;fontSize=12;startSize=8;endSize=8;" parent="1" source="64aAOLDRuQOuTL0fSd9q-15" target="SJ-EjwzHf5jVI1uUDhqG-14" edge="1">
          <mxGeometry relative="1" as="geometry" />
        </mxCell>
        <mxCell id="64aAOLDRuQOuTL0fSd9q-15" value="Human" style="rounded=1;whiteSpace=wrap;html=1;" parent="1" vertex="1">
          <mxGeometry x="-133" y="497" width="120" height="25" as="geometry" />
        </mxCell>
        <mxCell id="64aAOLDRuQOuTL0fSd9q-93" style="edgeStyle=none;curved=1;rounded=0;orthogonalLoop=1;jettySize=auto;html=1;exitX=1;exitY=0.5;exitDx=0;exitDy=0;entryX=0;entryY=0.5;entryDx=0;entryDy=0;fontSize=12;startSize=8;endSize=8;" parent="1" source="64aAOLDRuQOuTL0fSd9q-16" target="SJ-EjwzHf5jVI1uUDhqG-21" edge="1">
          <mxGeometry relative="1" as="geometry" />
        </mxCell>
        <mxCell id="64aAOLDRuQOuTL0fSd9q-16" value="Least weasel" style="rounded=1;whiteSpace=wrap;html=1;" parent="1" vertex="1">
          <mxGeometry x="-133" y="532" width="120" height="25" as="geometry" />
        </mxCell>
        <mxCell id="64aAOLDRuQOuTL0fSd9q-94" style="edgeStyle=none;curved=1;rounded=0;orthogonalLoop=1;jettySize=auto;html=1;exitX=1;exitY=0.5;exitDx=0;exitDy=0;entryX=0;entryY=0.5;entryDx=0;entryDy=0;fontSize=12;startSize=8;endSize=8;" parent="1" source="64aAOLDRuQOuTL0fSd9q-17" target="SJ-EjwzHf5jVI1uUDhqG-17" edge="1">
          <mxGeometry relative="1" as="geometry" />
        </mxCell>
        <mxCell id="64aAOLDRuQOuTL0fSd9q-17" value="Lynx" style="rounded=1;whiteSpace=wrap;html=1;" parent="1" vertex="1">
          <mxGeometry x="-133" y="567" width="120" height="25" as="geometry" />
        </mxCell>
        <mxCell id="64aAOLDRuQOuTL0fSd9q-95" style="edgeStyle=none;curved=1;rounded=0;orthogonalLoop=1;jettySize=auto;html=1;exitX=1;exitY=0.5;exitDx=0;exitDy=0;entryX=0;entryY=0.5;entryDx=0;entryDy=0;fontSize=12;startSize=8;endSize=8;" parent="1" source="64aAOLDRuQOuTL0fSd9q-18" target="SJ-EjwzHf5jVI1uUDhqG-21" edge="1">
          <mxGeometry relative="1" as="geometry" />
        </mxCell>
        <mxCell id="64aAOLDRuQOuTL0fSd9q-18" value="Marten" style="rounded=1;whiteSpace=wrap;html=1;" parent="1" vertex="1">
          <mxGeometry x="-133" y="602" width="120" height="25" as="geometry" />
        </mxCell>
        <mxCell id="64aAOLDRuQOuTL0fSd9q-96" style="edgeStyle=none;curved=1;rounded=0;orthogonalLoop=1;jettySize=auto;html=1;exitX=1;exitY=0.5;exitDx=0;exitDy=0;entryX=0;entryY=0.5;entryDx=0;entryDy=0;fontSize=12;startSize=8;endSize=8;" parent="1" source="64aAOLDRuQOuTL0fSd9q-19" target="SJ-EjwzHf5jVI1uUDhqG-19" edge="1">
          <mxGeometry relative="1" as="geometry" />
        </mxCell>
        <mxCell id="64aAOLDRuQOuTL0fSd9q-19" value="Mouse" style="rounded=1;whiteSpace=wrap;html=1;" parent="1" vertex="1">
          <mxGeometry x="-133" y="637" width="120" height="25" as="geometry" />
        </mxCell>
        <mxCell id="64aAOLDRuQOuTL0fSd9q-97" style="edgeStyle=none;curved=1;rounded=0;orthogonalLoop=1;jettySize=auto;html=1;exitX=1;exitY=0.5;exitDx=0;exitDy=0;entryX=0;entryY=0.5;entryDx=0;entryDy=0;fontSize=12;startSize=8;endSize=8;" parent="1" source="64aAOLDRuQOuTL0fSd9q-20" target="SJ-EjwzHf5jVI1uUDhqG-23" edge="1">
          <mxGeometry relative="1" as="geometry" />
        </mxCell>
        <mxCell id="64aAOLDRuQOuTL0fSd9q-20" value="Otter*" style="rounded=1;whiteSpace=wrap;html=1;" parent="1" vertex="1">
          <mxGeometry x="-133" y="672" width="120" height="25" as="geometry" />
        </mxCell>
        <mxCell id="64aAOLDRuQOuTL0fSd9q-98" style="edgeStyle=none;curved=1;rounded=0;orthogonalLoop=1;jettySize=auto;html=1;exitX=1;exitY=0.5;exitDx=0;exitDy=0;entryX=0;entryY=0.5;entryDx=0;entryDy=0;fontSize=12;startSize=8;endSize=8;" parent="1" source="64aAOLDRuQOuTL0fSd9q-21" target="SJ-EjwzHf5jVI1uUDhqG-21" edge="1">
          <mxGeometry relative="1" as="geometry" />
        </mxCell>
        <mxCell id="64aAOLDRuQOuTL0fSd9q-21" value="Pine marten" style="rounded=1;whiteSpace=wrap;html=1;" parent="1" vertex="1">
          <mxGeometry x="-133" y="707" width="120" height="25" as="geometry" />
        </mxCell>
        <mxCell id="64aAOLDRuQOuTL0fSd9q-99" style="edgeStyle=none;curved=1;rounded=0;orthogonalLoop=1;jettySize=auto;html=1;exitX=1;exitY=0.5;exitDx=0;exitDy=0;entryX=0;entryY=0.5;entryDx=0;entryDy=0;fontSize=12;startSize=8;endSize=8;" parent="1" source="64aAOLDRuQOuTL0fSd9q-24" target="SJ-EjwzHf5jVI1uUDhqG-24" edge="1">
          <mxGeometry relative="1" as="geometry" />
        </mxCell>
        <mxCell id="64aAOLDRuQOuTL0fSd9q-24" value="Red deer" style="rounded=1;whiteSpace=wrap;html=1;" parent="1" vertex="1">
          <mxGeometry x="-133" y="742" width="120" height="25" as="geometry" />
        </mxCell>
        <mxCell id="64aAOLDRuQOuTL0fSd9q-100" style="edgeStyle=none;curved=1;rounded=0;orthogonalLoop=1;jettySize=auto;html=1;exitX=1;exitY=0.5;exitDx=0;exitDy=0;entryX=0;entryY=0.5;entryDx=0;entryDy=0;fontSize=12;startSize=8;endSize=8;" parent="1" source="64aAOLDRuQOuTL0fSd9q-25" target="SJ-EjwzHf5jVI1uUDhqG-25" edge="1">
          <mxGeometry relative="1" as="geometry" />
        </mxCell>
        <mxCell id="64aAOLDRuQOuTL0fSd9q-25" value="Roe deer" style="rounded=1;whiteSpace=wrap;html=1;" parent="1" vertex="1">
          <mxGeometry x="-133" y="777" width="120" height="25" as="geometry" />
        </mxCell>
        <mxCell id="64aAOLDRuQOuTL0fSd9q-101" style="edgeStyle=none;curved=1;rounded=0;orthogonalLoop=1;jettySize=auto;html=1;exitX=1;exitY=0.5;exitDx=0;exitDy=0;entryX=0;entryY=0.5;entryDx=0;entryDy=0;fontSize=12;startSize=8;endSize=8;" parent="1" source="64aAOLDRuQOuTL0fSd9q-26" target="SJ-EjwzHf5jVI1uUDhqG-26" edge="1">
          <mxGeometry relative="1" as="geometry" />
        </mxCell>
        <mxCell id="64aAOLDRuQOuTL0fSd9q-26" value="Sheep" style="rounded=1;whiteSpace=wrap;html=1;" parent="1" vertex="1">
          <mxGeometry x="-133" y="812" width="120" height="25" as="geometry" />
        </mxCell>
        <mxCell id="64aAOLDRuQOuTL0fSd9q-102" style="edgeStyle=none;curved=1;rounded=0;orthogonalLoop=1;jettySize=auto;html=1;exitX=1;exitY=0.5;exitDx=0;exitDy=0;entryX=0;entryY=0.5;entryDx=0;entryDy=0;fontSize=12;startSize=8;endSize=8;" parent="1" source="64aAOLDRuQOuTL0fSd9q-27" target="SJ-EjwzHf5jVI1uUDhqG-27" edge="1">
          <mxGeometry relative="1" as="geometry" />
        </mxCell>
        <mxCell id="64aAOLDRuQOuTL0fSd9q-27" value="Squirrel" style="rounded=1;whiteSpace=wrap;html=1;" parent="1" vertex="1">
          <mxGeometry x="-133" y="847" width="120" height="25" as="geometry" />
        </mxCell>
        <mxCell id="64aAOLDRuQOuTL0fSd9q-103" style="edgeStyle=none;curved=1;rounded=0;orthogonalLoop=1;jettySize=auto;html=1;exitX=1;exitY=0.5;exitDx=0;exitDy=0;entryX=0;entryY=0.5;entryDx=0;entryDy=0;fontSize=12;startSize=8;endSize=8;" parent="1" source="64aAOLDRuQOuTL0fSd9q-28" target="SJ-EjwzHf5jVI1uUDhqG-28" edge="1">
          <mxGeometry relative="1" as="geometry" />
        </mxCell>
        <mxCell id="64aAOLDRuQOuTL0fSd9q-28" value="Unknown" style="rounded=1;whiteSpace=wrap;html=1;" parent="1" vertex="1">
          <mxGeometry x="-133" y="882" width="120" height="25" as="geometry" />
        </mxCell>
        <mxCell id="64aAOLDRuQOuTL0fSd9q-104" style="edgeStyle=none;curved=1;rounded=0;orthogonalLoop=1;jettySize=auto;html=1;exitX=1;exitY=0.5;exitDx=0;exitDy=0;entryX=0;entryY=0.5;entryDx=0;entryDy=0;fontSize=12;startSize=8;endSize=8;" parent="1" source="64aAOLDRuQOuTL0fSd9q-29" target="SJ-EjwzHf5jVI1uUDhqG-29" edge="1">
          <mxGeometry relative="1" as="geometry" />
        </mxCell>
        <mxCell id="64aAOLDRuQOuTL0fSd9q-29" value="Vehicle" style="rounded=1;whiteSpace=wrap;html=1;" parent="1" vertex="1">
          <mxGeometry x="-133" y="917" width="120" height="25" as="geometry" />
        </mxCell>
        <mxCell id="64aAOLDRuQOuTL0fSd9q-105" style="edgeStyle=none;curved=1;rounded=0;orthogonalLoop=1;jettySize=auto;html=1;exitX=1;exitY=0.5;exitDx=0;exitDy=0;entryX=0;entryY=0.5;entryDx=0;entryDy=0;fontSize=12;startSize=8;endSize=8;" parent="1" source="64aAOLDRuQOuTL0fSd9q-30" target="SJ-EjwzHf5jVI1uUDhqG-31" edge="1">
          <mxGeometry relative="1" as="geometry" />
        </mxCell>
        <mxCell id="64aAOLDRuQOuTL0fSd9q-30" value="Wild boar" style="rounded=1;whiteSpace=wrap;html=1;" parent="1" vertex="1">
          <mxGeometry x="-133" y="952" width="120" height="25" as="geometry" />
        </mxCell>
        <mxCell id="64aAOLDRuQOuTL0fSd9q-106" style="edgeStyle=none;curved=1;rounded=0;orthogonalLoop=1;jettySize=auto;html=1;exitX=1;exitY=0.5;exitDx=0;exitDy=0;entryX=0;entryY=0.5;entryDx=0;entryDy=0;fontSize=12;startSize=8;endSize=8;" parent="1" source="64aAOLDRuQOuTL0fSd9q-31" target="SJ-EjwzHf5jVI1uUDhqG-4" edge="1">
          <mxGeometry relative="1" as="geometry" />
        </mxCell>
        <mxCell id="64aAOLDRuQOuTL0fSd9q-31" value="Wild cat" style="rounded=1;whiteSpace=wrap;html=1;" parent="1" vertex="1">
          <mxGeometry x="-133" y="987" width="120" height="25" as="geometry" />
        </mxCell>
        <mxCell id="64aAOLDRuQOuTL0fSd9q-107" style="edgeStyle=none;curved=1;rounded=0;orthogonalLoop=1;jettySize=auto;html=1;exitX=1;exitY=0.5;exitDx=0;exitDy=0;entryX=0;entryY=0.5;entryDx=0;entryDy=0;fontSize=12;startSize=8;endSize=8;" parent="1" source="64aAOLDRuQOuTL0fSd9q-32" target="SJ-EjwzHf5jVI1uUDhqG-32" edge="1">
          <mxGeometry relative="1" as="geometry" />
        </mxCell>
        <mxCell id="64aAOLDRuQOuTL0fSd9q-32" value="Wolf" style="rounded=1;whiteSpace=wrap;html=1;" parent="1" vertex="1">
          <mxGeometry x="-133" y="1022" width="120" height="25" as="geometry" />
        </mxCell>
        <mxCell id="64aAOLDRuQOuTL0fSd9q-108" style="edgeStyle=none;curved=1;rounded=0;orthogonalLoop=1;jettySize=auto;html=1;exitX=0;exitY=0.5;exitDx=0;exitDy=0;entryX=1;entryY=0.5;entryDx=0;entryDy=0;fontSize=12;startSize=8;endSize=8;" parent="1" source="64aAOLDRuQOuTL0fSd9q-33" target="SJ-EjwzHf5jVI1uUDhqG-1" edge="1">
          <mxGeometry relative="1" as="geometry" />
        </mxCell>
        <mxCell id="64aAOLDRuQOuTL0fSd9q-33" value="Badger" style="rounded=1;whiteSpace=wrap;html=1;" parent="1" vertex="1">
          <mxGeometry x="460" y="7" width="120" height="25" as="geometry" />
        </mxCell>
        <mxCell id="64aAOLDRuQOuTL0fSd9q-109" style="edgeStyle=none;curved=1;rounded=0;orthogonalLoop=1;jettySize=auto;html=1;exitX=0;exitY=0.5;exitDx=0;exitDy=0;entryX=1;entryY=0.5;entryDx=0;entryDy=0;fontSize=12;startSize=8;endSize=8;" parent="1" source="64aAOLDRuQOuTL0fSd9q-34" target="SJ-EjwzHf5jVI1uUDhqG-2" edge="1">
          <mxGeometry relative="1" as="geometry" />
        </mxCell>
        <mxCell id="64aAOLDRuQOuTL0fSd9q-34" value="Bear" style="rounded=1;whiteSpace=wrap;html=1;" parent="1" vertex="1">
          <mxGeometry x="460" y="42" width="120" height="25" as="geometry" />
        </mxCell>
        <mxCell id="64aAOLDRuQOuTL0fSd9q-111" style="edgeStyle=none;curved=1;rounded=0;orthogonalLoop=1;jettySize=auto;html=1;exitX=0;exitY=0.5;exitDx=0;exitDy=0;entryX=1;entryY=0.5;entryDx=0;entryDy=0;fontSize=12;startSize=8;endSize=8;" parent="1" source="64aAOLDRuQOuTL0fSd9q-36" target="SJ-EjwzHf5jVI1uUDhqG-4" edge="1">
          <mxGeometry relative="1" as="geometry" />
        </mxCell>
        <mxCell id="64aAOLDRuQOuTL0fSd9q-36" value="Cat" style="rounded=1;whiteSpace=wrap;html=1;" parent="1" vertex="1">
          <mxGeometry x="460" y="112" width="120" height="25" as="geometry" />
        </mxCell>
        <mxCell id="64aAOLDRuQOuTL0fSd9q-112" style="edgeStyle=none;curved=1;rounded=0;orthogonalLoop=1;jettySize=auto;html=1;exitX=0;exitY=0.5;exitDx=0;exitDy=0;entryX=1;entryY=0.5;entryDx=0;entryDy=0;fontSize=12;startSize=8;endSize=8;" parent="1" source="64aAOLDRuQOuTL0fSd9q-37" target="SJ-EjwzHf5jVI1uUDhqG-5" edge="1">
          <mxGeometry relative="1" as="geometry" />
        </mxCell>
        <mxCell id="64aAOLDRuQOuTL0fSd9q-37" value="Chamois" style="rounded=1;whiteSpace=wrap;html=1;" parent="1" vertex="1">
          <mxGeometry x="460" y="147" width="120" height="25" as="geometry" />
        </mxCell>
        <mxCell id="64aAOLDRuQOuTL0fSd9q-113" style="edgeStyle=none;curved=1;rounded=0;orthogonalLoop=1;jettySize=auto;html=1;exitX=0;exitY=0.5;exitDx=0;exitDy=0;entryX=1;entryY=0.5;entryDx=0;entryDy=0;fontSize=12;startSize=8;endSize=8;" parent="1" source="64aAOLDRuQOuTL0fSd9q-38" target="SJ-EjwzHf5jVI1uUDhqG-6" edge="1">
          <mxGeometry relative="1" as="geometry" />
        </mxCell>
        <mxCell id="64aAOLDRuQOuTL0fSd9q-38" value="Cow" style="rounded=1;whiteSpace=wrap;html=1;" parent="1" vertex="1">
          <mxGeometry x="460" y="182" width="120" height="25" as="geometry" />
        </mxCell>
        <mxCell id="64aAOLDRuQOuTL0fSd9q-114" style="edgeStyle=none;curved=1;rounded=0;orthogonalLoop=1;jettySize=auto;html=1;exitX=0;exitY=0.5;exitDx=0;exitDy=0;entryX=1;entryY=0.5;entryDx=0;entryDy=0;fontSize=12;startSize=8;endSize=8;" parent="1" source="64aAOLDRuQOuTL0fSd9q-39" target="SJ-EjwzHf5jVI1uUDhqG-7" edge="1">
          <mxGeometry relative="1" as="geometry" />
        </mxCell>
        <mxCell id="64aAOLDRuQOuTL0fSd9q-39" value="Dog" style="rounded=1;whiteSpace=wrap;html=1;" parent="1" vertex="1">
          <mxGeometry x="460" y="217" width="120" height="25" as="geometry" />
        </mxCell>
        <mxCell id="64aAOLDRuQOuTL0fSd9q-116" style="edgeStyle=none;curved=1;rounded=0;orthogonalLoop=1;jettySize=auto;html=1;exitX=0;exitY=0.5;exitDx=0;exitDy=0;entryX=1;entryY=0.5;entryDx=0;entryDy=0;fontSize=12;startSize=8;endSize=8;" parent="1" source="64aAOLDRuQOuTL0fSd9q-40" target="SJ-EjwzHf5jVI1uUDhqG-8" edge="1">
          <mxGeometry relative="1" as="geometry" />
        </mxCell>
        <mxCell id="64aAOLDRuQOuTL0fSd9q-40" value="Empty**" style="rounded=1;whiteSpace=wrap;html=1;" parent="1" vertex="1">
          <mxGeometry x="460" y="252" width="120" height="25" as="geometry" />
        </mxCell>
        <mxCell id="64aAOLDRuQOuTL0fSd9q-115" style="edgeStyle=none;curved=1;rounded=0;orthogonalLoop=1;jettySize=auto;html=1;exitX=0;exitY=0.5;exitDx=0;exitDy=0;entryX=1;entryY=0.5;entryDx=0;entryDy=0;fontSize=12;startSize=8;endSize=8;" parent="1" source="64aAOLDRuQOuTL0fSd9q-41" target="SJ-EjwzHf5jVI1uUDhqG-9" edge="1">
          <mxGeometry relative="1" as="geometry" />
        </mxCell>
        <mxCell id="64aAOLDRuQOuTL0fSd9q-41" value="Equid" style="rounded=1;whiteSpace=wrap;html=1;" parent="1" vertex="1">
          <mxGeometry x="460" y="287" width="120" height="25" as="geometry" />
        </mxCell>
        <mxCell id="64aAOLDRuQOuTL0fSd9q-117" style="edgeStyle=none;curved=1;rounded=0;orthogonalLoop=1;jettySize=auto;html=1;exitX=0;exitY=0.5;exitDx=0;exitDy=0;entryX=1;entryY=0.5;entryDx=0;entryDy=0;fontSize=12;startSize=8;endSize=8;" parent="1" source="64aAOLDRuQOuTL0fSd9q-42" target="SJ-EjwzHf5jVI1uUDhqG-10" edge="1">
          <mxGeometry relative="1" as="geometry" />
        </mxCell>
        <mxCell id="64aAOLDRuQOuTL0fSd9q-42" value="Fox" style="rounded=1;whiteSpace=wrap;html=1;" parent="1" vertex="1">
          <mxGeometry x="460" y="322" width="120" height="25" as="geometry" />
        </mxCell>
        <mxCell id="64aAOLDRuQOuTL0fSd9q-119" style="edgeStyle=none;curved=1;rounded=0;orthogonalLoop=1;jettySize=auto;html=1;exitX=0;exitY=0.5;exitDx=0;exitDy=0;entryX=1;entryY=0.5;entryDx=0;entryDy=0;fontSize=12;startSize=8;endSize=8;" parent="1" source="64aAOLDRuQOuTL0fSd9q-43" target="SJ-EjwzHf5jVI1uUDhqG-11" edge="1">
          <mxGeometry relative="1" as="geometry" />
        </mxCell>
        <mxCell id="64aAOLDRuQOuTL0fSd9q-43" value="Genet**" style="rounded=1;whiteSpace=wrap;html=1;" parent="1" vertex="1">
          <mxGeometry x="460" y="357" width="120" height="25" as="geometry" />
        </mxCell>
        <mxCell id="64aAOLDRuQOuTL0fSd9q-120" style="edgeStyle=none;curved=1;rounded=0;orthogonalLoop=1;jettySize=auto;html=1;exitX=0;exitY=0.5;exitDx=0;exitDy=0;entryX=1;entryY=0.5;entryDx=0;entryDy=0;fontSize=12;startSize=8;endSize=8;" parent="1" source="64aAOLDRuQOuTL0fSd9q-44" target="SJ-EjwzHf5jVI1uUDhqG-12" edge="1">
          <mxGeometry relative="1" as="geometry" />
        </mxCell>
        <mxCell id="64aAOLDRuQOuTL0fSd9q-44" value="Goat" style="rounded=1;whiteSpace=wrap;html=1;" parent="1" vertex="1">
          <mxGeometry x="460" y="392" width="120" height="25" as="geometry" />
        </mxCell>
        <mxCell id="64aAOLDRuQOuTL0fSd9q-121" style="edgeStyle=none;curved=1;rounded=0;orthogonalLoop=1;jettySize=auto;html=1;exitX=0;exitY=0.5;exitDx=0;exitDy=0;entryX=1;entryY=0.5;entryDx=0;entryDy=0;fontSize=12;startSize=8;endSize=8;" parent="1" source="64aAOLDRuQOuTL0fSd9q-45" target="SJ-EjwzHf5jVI1uUDhqG-13" edge="1">
          <mxGeometry relative="1" as="geometry" />
        </mxCell>
        <mxCell id="64aAOLDRuQOuTL0fSd9q-45" value="Hedgehog" style="rounded=1;whiteSpace=wrap;html=1;" parent="1" vertex="1">
          <mxGeometry x="460" y="427" width="120" height="25" as="geometry" />
        </mxCell>
        <mxCell id="64aAOLDRuQOuTL0fSd9q-122" style="edgeStyle=none;curved=1;rounded=0;orthogonalLoop=1;jettySize=auto;html=1;exitX=0;exitY=0.5;exitDx=0;exitDy=0;entryX=1;entryY=0.5;entryDx=0;entryDy=0;fontSize=12;startSize=8;endSize=8;" parent="1" source="64aAOLDRuQOuTL0fSd9q-46" target="SJ-EjwzHf5jVI1uUDhqG-14" edge="1">
          <mxGeometry relative="1" as="geometry" />
        </mxCell>
        <mxCell id="64aAOLDRuQOuTL0fSd9q-46" value="Human" style="rounded=1;whiteSpace=wrap;html=1;" parent="1" vertex="1">
          <mxGeometry x="460" y="462" width="120" height="25" as="geometry" />
        </mxCell>
        <mxCell id="64aAOLDRuQOuTL0fSd9q-123" style="edgeStyle=none;curved=1;rounded=0;orthogonalLoop=1;jettySize=auto;html=1;exitX=0;exitY=0.5;exitDx=0;exitDy=0;entryX=1;entryY=0.5;entryDx=0;entryDy=0;fontSize=12;startSize=8;endSize=8;" parent="1" source="64aAOLDRuQOuTL0fSd9q-47" target="SJ-EjwzHf5jVI1uUDhqG-15" edge="1">
          <mxGeometry relative="1" as="geometry" />
        </mxCell>
        <mxCell id="64aAOLDRuQOuTL0fSd9q-47" value="Ibex**" style="rounded=1;whiteSpace=wrap;html=1;" parent="1" vertex="1">
          <mxGeometry x="460" y="497" width="120" height="25" as="geometry" />
        </mxCell>
        <mxCell id="64aAOLDRuQOuTL0fSd9q-124" style="edgeStyle=none;curved=1;rounded=0;orthogonalLoop=1;jettySize=auto;html=1;exitX=0;exitY=0.5;exitDx=0;exitDy=0;entryX=1;entryY=0.5;entryDx=0;entryDy=0;fontSize=12;startSize=8;endSize=8;" parent="1" source="64aAOLDRuQOuTL0fSd9q-48" target="SJ-EjwzHf5jVI1uUDhqG-16" edge="1">
          <mxGeometry relative="1" as="geometry" />
        </mxCell>
        <mxCell id="64aAOLDRuQOuTL0fSd9q-48" value="Lagomorph" style="rounded=1;whiteSpace=wrap;html=1;" parent="1" vertex="1">
          <mxGeometry x="460" y="532" width="120" height="25" as="geometry" />
        </mxCell>
        <mxCell id="64aAOLDRuQOuTL0fSd9q-125" style="edgeStyle=none;curved=1;rounded=0;orthogonalLoop=1;jettySize=auto;html=1;exitX=0;exitY=0.5;exitDx=0;exitDy=0;entryX=1;entryY=0.5;entryDx=0;entryDy=0;fontSize=12;startSize=8;endSize=8;" parent="1" source="64aAOLDRuQOuTL0fSd9q-49" target="SJ-EjwzHf5jVI1uUDhqG-17" edge="1">
          <mxGeometry relative="1" as="geometry" />
        </mxCell>
        <mxCell id="64aAOLDRuQOuTL0fSd9q-49" value="Lynx" style="rounded=1;whiteSpace=wrap;html=1;" parent="1" vertex="1">
          <mxGeometry x="460" y="567" width="120" height="25" as="geometry" />
        </mxCell>
        <mxCell id="64aAOLDRuQOuTL0fSd9q-126" style="edgeStyle=none;curved=1;rounded=0;orthogonalLoop=1;jettySize=auto;html=1;exitX=0;exitY=0.5;exitDx=0;exitDy=0;entryX=1;entryY=0.5;entryDx=0;entryDy=0;fontSize=12;startSize=8;endSize=8;" parent="1" source="64aAOLDRuQOuTL0fSd9q-50" target="SJ-EjwzHf5jVI1uUDhqG-18" edge="1">
          <mxGeometry relative="1" as="geometry" />
        </mxCell>
        <mxCell id="64aAOLDRuQOuTL0fSd9q-50" value="Marmot**" style="rounded=1;whiteSpace=wrap;html=1;" parent="1" vertex="1">
          <mxGeometry x="460" y="602" width="120" height="25" as="geometry" />
        </mxCell>
        <mxCell id="64aAOLDRuQOuTL0fSd9q-127" style="edgeStyle=none;curved=1;rounded=0;orthogonalLoop=1;jettySize=auto;html=1;exitX=0;exitY=0.5;exitDx=0;exitDy=0;entryX=1;entryY=0.5;entryDx=0;entryDy=0;fontSize=12;startSize=8;endSize=8;" parent="1" source="64aAOLDRuQOuTL0fSd9q-51" target="SJ-EjwzHf5jVI1uUDhqG-19" edge="1">
          <mxGeometry relative="1" as="geometry" />
        </mxCell>
        <mxCell id="64aAOLDRuQOuTL0fSd9q-51" value="Micromammal" style="rounded=1;whiteSpace=wrap;html=1;" parent="1" vertex="1">
          <mxGeometry x="460" y="637" width="120" height="25" as="geometry" />
        </mxCell>
        <mxCell id="64aAOLDRuQOuTL0fSd9q-128" style="edgeStyle=none;curved=1;rounded=0;orthogonalLoop=1;jettySize=auto;html=1;exitX=0;exitY=0.5;exitDx=0;exitDy=0;entryX=1;entryY=0.5;entryDx=0;entryDy=0;fontSize=12;startSize=8;endSize=8;" parent="1" source="64aAOLDRuQOuTL0fSd9q-52" target="SJ-EjwzHf5jVI1uUDhqG-20" edge="1">
          <mxGeometry relative="1" as="geometry" />
        </mxCell>
        <mxCell id="64aAOLDRuQOuTL0fSd9q-52" value="Mouflon**" style="rounded=1;whiteSpace=wrap;html=1;" parent="1" vertex="1">
          <mxGeometry x="460" y="672" width="120" height="25" as="geometry" />
        </mxCell>
        <mxCell id="64aAOLDRuQOuTL0fSd9q-129" style="edgeStyle=none;curved=1;rounded=0;orthogonalLoop=1;jettySize=auto;html=1;exitX=0;exitY=0.5;exitDx=0;exitDy=0;entryX=1;entryY=0.5;entryDx=0;entryDy=0;fontSize=12;startSize=8;endSize=8;" parent="1" source="64aAOLDRuQOuTL0fSd9q-53" target="SJ-EjwzHf5jVI1uUDhqG-21" edge="1">
          <mxGeometry relative="1" as="geometry" />
        </mxCell>
        <mxCell id="64aAOLDRuQOuTL0fSd9q-53" value="Mustelid" style="rounded=1;whiteSpace=wrap;html=1;" parent="1" vertex="1">
          <mxGeometry x="460" y="707" width="120" height="25" as="geometry" />
        </mxCell>
        <mxCell id="64aAOLDRuQOuTL0fSd9q-130" style="edgeStyle=none;curved=1;rounded=0;orthogonalLoop=1;jettySize=auto;html=1;exitX=0;exitY=0.5;exitDx=0;exitDy=0;entryX=1;entryY=0.5;entryDx=0;entryDy=0;fontSize=12;startSize=8;endSize=8;" parent="1" source="64aAOLDRuQOuTL0fSd9q-54" target="SJ-EjwzHf5jVI1uUDhqG-22" edge="1">
          <mxGeometry relative="1" as="geometry" />
        </mxCell>
        <mxCell id="64aAOLDRuQOuTL0fSd9q-54" value="Nutria**" style="rounded=1;whiteSpace=wrap;html=1;" parent="1" vertex="1">
          <mxGeometry x="460" y="742" width="120" height="25" as="geometry" />
        </mxCell>
        <mxCell id="64aAOLDRuQOuTL0fSd9q-132" style="edgeStyle=none;curved=1;rounded=0;orthogonalLoop=1;jettySize=auto;html=1;exitX=0;exitY=0.5;exitDx=0;exitDy=0;entryX=1;entryY=0.5;entryDx=0;entryDy=0;fontSize=12;startSize=8;endSize=8;" parent="1" source="64aAOLDRuQOuTL0fSd9q-56" target="SJ-EjwzHf5jVI1uUDhqG-24" edge="1">
          <mxGeometry relative="1" as="geometry" />
        </mxCell>
        <mxCell id="64aAOLDRuQOuTL0fSd9q-56" value="Red deer" style="rounded=1;whiteSpace=wrap;html=1;" parent="1" vertex="1">
          <mxGeometry x="460" y="776" width="120" height="25" as="geometry" />
        </mxCell>
        <mxCell id="64aAOLDRuQOuTL0fSd9q-133" style="edgeStyle=none;curved=1;rounded=0;orthogonalLoop=1;jettySize=auto;html=1;exitX=0;exitY=0.5;exitDx=0;exitDy=0;entryX=1;entryY=0.5;entryDx=0;entryDy=0;fontSize=12;startSize=8;endSize=8;" parent="1" source="64aAOLDRuQOuTL0fSd9q-57" target="SJ-EjwzHf5jVI1uUDhqG-25" edge="1">
          <mxGeometry relative="1" as="geometry" />
        </mxCell>
        <mxCell id="64aAOLDRuQOuTL0fSd9q-57" value="Roe deer" style="rounded=1;whiteSpace=wrap;html=1;" parent="1" vertex="1">
          <mxGeometry x="460" y="811" width="120" height="25" as="geometry" />
        </mxCell>
        <mxCell id="64aAOLDRuQOuTL0fSd9q-134" style="edgeStyle=none;curved=1;rounded=0;orthogonalLoop=1;jettySize=auto;html=1;exitX=0;exitY=0.5;exitDx=0;exitDy=0;entryX=1;entryY=0.5;entryDx=0;entryDy=0;fontSize=12;startSize=8;endSize=8;" parent="1" source="64aAOLDRuQOuTL0fSd9q-58" target="SJ-EjwzHf5jVI1uUDhqG-26" edge="1">
          <mxGeometry relative="1" as="geometry" />
        </mxCell>
        <mxCell id="64aAOLDRuQOuTL0fSd9q-58" value="Sheep" style="rounded=1;whiteSpace=wrap;html=1;" parent="1" vertex="1">
          <mxGeometry x="460" y="846" width="120" height="25" as="geometry" />
        </mxCell>
        <mxCell id="64aAOLDRuQOuTL0fSd9q-135" style="edgeStyle=none;curved=1;rounded=0;orthogonalLoop=1;jettySize=auto;html=1;exitX=0;exitY=0.5;exitDx=0;exitDy=0;entryX=1;entryY=0.5;entryDx=0;entryDy=0;fontSize=12;startSize=8;endSize=8;" parent="1" source="64aAOLDRuQOuTL0fSd9q-59" target="SJ-EjwzHf5jVI1uUDhqG-27" edge="1">
          <mxGeometry relative="1" as="geometry" />
        </mxCell>
        <mxCell id="64aAOLDRuQOuTL0fSd9q-59" value="Squirrel" style="rounded=1;whiteSpace=wrap;html=1;" parent="1" vertex="1">
          <mxGeometry x="460" y="881" width="120" height="25" as="geometry" />
        </mxCell>
        <mxCell id="64aAOLDRuQOuTL0fSd9q-136" style="edgeStyle=none;curved=1;rounded=0;orthogonalLoop=1;jettySize=auto;html=1;exitX=0;exitY=0.5;exitDx=0;exitDy=0;entryX=1;entryY=0.5;entryDx=0;entryDy=0;fontSize=12;startSize=8;endSize=8;" parent="1" source="64aAOLDRuQOuTL0fSd9q-60" target="SJ-EjwzHf5jVI1uUDhqG-28" edge="1">
          <mxGeometry relative="1" as="geometry" />
        </mxCell>
        <mxCell id="64aAOLDRuQOuTL0fSd9q-60" value="Undefined" style="rounded=1;whiteSpace=wrap;html=1;" parent="1" vertex="1">
          <mxGeometry x="460" y="916" width="120" height="25" as="geometry" />
        </mxCell>
        <mxCell id="64aAOLDRuQOuTL0fSd9q-137" style="edgeStyle=none;curved=1;rounded=0;orthogonalLoop=1;jettySize=auto;html=1;exitX=0;exitY=0.5;exitDx=0;exitDy=0;entryX=1;entryY=0.5;entryDx=0;entryDy=0;fontSize=12;startSize=8;endSize=8;" parent="1" source="64aAOLDRuQOuTL0fSd9q-61" target="SJ-EjwzHf5jVI1uUDhqG-29" edge="1">
          <mxGeometry relative="1" as="geometry" />
        </mxCell>
        <mxCell id="64aAOLDRuQOuTL0fSd9q-61" value="Vehicle" style="rounded=1;whiteSpace=wrap;html=1;" parent="1" vertex="1">
          <mxGeometry x="460" y="951" width="120" height="25" as="geometry" />
        </mxCell>
        <mxCell id="64aAOLDRuQOuTL0fSd9q-138" style="edgeStyle=none;curved=1;rounded=0;orthogonalLoop=1;jettySize=auto;html=1;exitX=0;exitY=0.5;exitDx=0;exitDy=0;entryX=1;entryY=0.5;entryDx=0;entryDy=0;fontSize=12;startSize=8;endSize=8;" parent="1" source="64aAOLDRuQOuTL0fSd9q-63" target="SJ-EjwzHf5jVI1uUDhqG-31" edge="1">
          <mxGeometry relative="1" as="geometry" />
        </mxCell>
        <mxCell id="64aAOLDRuQOuTL0fSd9q-63" value="Wild boar" style="rounded=1;whiteSpace=wrap;html=1;" parent="1" vertex="1">
          <mxGeometry x="460" y="986" width="120" height="25" as="geometry" />
        </mxCell>
        <mxCell id="64aAOLDRuQOuTL0fSd9q-139" style="edgeStyle=none;curved=1;rounded=0;orthogonalLoop=1;jettySize=auto;html=1;exitX=0;exitY=0.5;exitDx=0;exitDy=0;entryX=1;entryY=0.5;entryDx=0;entryDy=0;fontSize=12;startSize=8;endSize=8;" parent="1" source="64aAOLDRuQOuTL0fSd9q-64" target="SJ-EjwzHf5jVI1uUDhqG-32" edge="1">
          <mxGeometry relative="1" as="geometry" />
        </mxCell>
        <mxCell id="64aAOLDRuQOuTL0fSd9q-64" value="Wolf" style="rounded=1;whiteSpace=wrap;html=1;" parent="1" vertex="1">
          <mxGeometry x="460" y="1021" width="120" height="25" as="geometry" />
        </mxCell>
        <mxCell id="64aAOLDRuQOuTL0fSd9q-65" value="Master Class Mapping" style="text;html=1;align=center;verticalAlign=middle;whiteSpace=wrap;rounded=0;fontSize=22;fontStyle=1" parent="1" vertex="1">
          <mxGeometry x="149" y="-118" width="144" height="72" as="geometry" />
        </mxCell>
        <mxCell id="64aAOLDRuQOuTL0fSd9q-66" value="FCC Classes" style="text;html=1;align=center;verticalAlign=middle;whiteSpace=wrap;rounded=0;fontSize=22;fontStyle=1" parent="1" vertex="1">
          <mxGeometry x="-145" y="-118" width="144" height="72" as="geometry" />
        </mxCell>
        <mxCell id="64aAOLDRuQOuTL0fSd9q-67" value="DeepFaune Classes" style="text;html=1;align=center;verticalAlign=middle;whiteSpace=wrap;rounded=0;fontSize=22;fontStyle=1" parent="1" vertex="1">
          <mxGeometry x="448" y="-118" width="144" height="72" as="geometry" />
        </mxCell>
        <mxCell id="64aAOLDRuQOuTL0fSd9q-68" value="Bird" style="rounded=1;whiteSpace=wrap;html=1;" parent="1" vertex="1">
          <mxGeometry x="161" y="32" width="120" height="25" as="geometry" />
        </mxCell>
        <mxCell id="64aAOLDRuQOuTL0fSd9q-76" style="edgeStyle=none;curved=1;rounded=0;orthogonalLoop=1;jettySize=auto;html=1;exitX=1;exitY=0.5;exitDx=0;exitDy=0;entryX=0;entryY=0.5;entryDx=0;entryDy=0;fontSize=12;startSize=8;endSize=8;" parent="1" source="64aAOLDRuQOuTL0fSd9q-69" target="64aAOLDRuQOuTL0fSd9q-68" edge="1">
          <mxGeometry relative="1" as="geometry" />
        </mxCell>
        <mxCell id="64aAOLDRuQOuTL0fSd9q-69" value="Bird" style="rounded=1;whiteSpace=wrap;html=1;" parent="1" vertex="1">
          <mxGeometry x="-133" y="42" width="120" height="25" as="geometry" />
        </mxCell>
        <mxCell id="64aAOLDRuQOuTL0fSd9q-110" style="edgeStyle=none;curved=1;rounded=0;orthogonalLoop=1;jettySize=auto;html=1;exitX=0;exitY=0.5;exitDx=0;exitDy=0;entryX=1;entryY=0.5;entryDx=0;entryDy=0;fontSize=12;startSize=8;endSize=8;" parent="1" source="64aAOLDRuQOuTL0fSd9q-70" target="64aAOLDRuQOuTL0fSd9q-68" edge="1">
          <mxGeometry relative="1" as="geometry" />
        </mxCell>
        <mxCell id="64aAOLDRuQOuTL0fSd9q-70" value="Bird" style="rounded=1;whiteSpace=wrap;html=1;" parent="1" vertex="1">
          <mxGeometry x="460" y="77" width="120" height="25" as="geometry" />
        </mxCell>
        <mxCell id="64aAOLDRuQOuTL0fSd9q-89" style="edgeStyle=none;curved=1;rounded=0;orthogonalLoop=1;jettySize=auto;html=1;exitX=1;exitY=0.5;exitDx=0;exitDy=0;entryX=0;entryY=0.5;entryDx=0;entryDy=0;fontSize=12;startSize=8;endSize=8;" parent="1" source="64aAOLDRuQOuTL0fSd9q-71" target="SJ-EjwzHf5jVI1uUDhqG-12" edge="1">
          <mxGeometry relative="1" as="geometry" />
        </mxCell>
        <mxCell id="64aAOLDRuQOuTL0fSd9q-71" value="Goat" style="rounded=1;whiteSpace=wrap;html=1;" parent="1" vertex="1">
          <mxGeometry x="-133" y="392" width="120" height="25" as="geometry" />
        </mxCell>
      </root>
    </mxGraphModel>
  </diagram>
</mxfile>
